<svg width="328" height="112" viewBox="0 0 328 112" fill="none" xmlns="http://www.w3.org/2000/svg">
<path d="M43.7895 4.24827C41.1509 6.56551 37.1649 10.0965 34.8632 12.0828C32.5614 14.069 30.2597 16.1103 29.8105 16.5517C29.3053 16.9931 24.4772 21.2414 19.0877 25.931C13.6982 30.6207 8.98246 34.7034 8.64561 35.0345C8.30877 35.3103 6.23158 37.1862 3.98597 39.0621L0 42.5931V77.2965V112H49.1228H98.2456V104.552V97.1034H95.7193H93.193V102.069V107.034H49.1228H5.05263V75.9172C5.05263 46.2345 5.10877 44.7448 6.06316 44.0276C7.12983 43.3103 15.0456 36.3586 16.786 34.7034C17.2912 34.2069 21.2211 30.731 25.6 26.9793C29.9228 23.2276 36.7158 17.269 40.7579 13.7379C44.7439 10.2621 48.3368 7.22758 48.6737 6.95172C49.1228 6.73103 51.3123 8.27586 54.5684 11.1448C57.4316 13.6828 64.2246 19.5862 69.614 24.2207C75.0035 28.9103 80 33.269 80.6176 33.8759C82.4702 35.6965 90.1614 42.4276 91.7895 43.6965C93.1369 44.7448 93.193 44.9655 93.193 51.3655V57.931H95.7193H98.2456V50.2621V42.5931L94.2035 39.1172C89.3754 34.8138 88.814 34.3172 83.593 29.7379C63.7754 12.2483 49.5158 -7.14511e-06 49.0105 -7.14511e-06C48.786 0.0551653 46.4281 1.93103 43.7895 4.24827Z" fill="black"/>
<path d="M37.3333 30.4561V35.3684H42.2456H47.1579V30.4561V25.5439H42.2456H37.3333V30.4561Z" fill="black"/>
<path d="M49.1228 30.4561V35.3684H54.0351H58.9474V30.4561V25.5439H54.0351H49.1228V30.4561Z" fill="black"/>
<path d="M37.7154 37.7154C37.4971 37.8791 37.3333 40.117 37.3333 42.6277V47.1579H42.2456H47.1579V42.2456V37.3333H42.6277C40.117 37.3333 37.8792 37.4971 37.7154 37.7154Z" fill="black"/>
<path d="M49.5028 37.5735C49.2856 37.7939 49.1228 40.0522 49.1228 42.586V47.1579H54.0079H58.9474L58.7845 42.3106L58.6217 37.5184L54.2793 37.3532C51.8368 37.2981 49.7199 37.3532 49.5028 37.5735Z" fill="black"/>
<path d="M66.7912 57.6225C66.1117 57.8483 65.8097 59.9566 65.8097 64.3237V70.7238L63.5449 69.5191C62.337 68.9167 59.9211 68.3896 58.1847 68.3896C55.5424 68.3896 54.561 68.8414 52.2206 71.2509C49.9558 73.5097 49.2764 74.7897 48.8234 78.0274C47.9929 84.3522 48.9744 89.2464 51.8432 92.3335C53.957 94.6676 54.712 95.0441 58.1092 95.0441C60.9026 95.1194 62.488 94.6676 64.1488 93.4629C66.3382 91.8817 66.4137 91.8064 66.7912 93.237C67.0931 94.3665 67.8481 94.7429 69.8864 94.7429H72.6043V76.3709C72.6043 60.3331 72.4533 57.9236 71.3963 57.5472C70.0374 57.0201 68.1501 57.0201 66.7912 57.6225ZM63.4694 75.618C65.5832 77.3498 65.8097 77.9521 65.8097 81.9428C65.8097 85.7828 65.5832 86.5358 63.8469 87.8911C59.2417 91.5052 55.6934 88.8699 55.6179 81.7922C55.6179 77.8015 55.8444 77.1239 57.7318 75.4674C60.3741 73.2085 60.6006 73.2085 63.4694 75.618Z" fill="black"/>
<path d="M107.483 57.9989C106.426 59.0531 106.199 92.1829 107.256 93.8394C107.634 94.4417 108.993 94.7429 110.805 94.5923L113.749 94.3665L113.975 76.3709C114.126 62.4413 113.9 58.2248 113.221 57.6977C111.786 56.7942 108.54 56.9448 107.483 57.9989Z" fill="black"/>
<path d="M121.902 58.6013C120.619 59.1283 120.166 59.9566 120.166 61.4625C120.166 64.3237 121.676 65.5284 124.847 65.2272C127.111 65.0014 127.338 64.7755 127.564 62.1401C127.791 59.7307 127.564 59.2789 125.828 58.6013C124.771 58.1495 123.79 57.8483 123.714 57.9236C123.639 57.9236 122.808 58.2248 121.902 58.6013Z" fill="black"/>
<path d="M246.242 64.6249C246.242 68.3143 246.091 71.4014 245.865 71.4014C245.714 71.4014 244.43 70.7238 243.072 69.8955C238.391 67.1096 232.955 68.6908 230.464 73.585C227.293 79.7592 228.954 91.6558 233.333 93.99C236.051 95.4206 241.184 94.8935 244.204 92.8605L246.997 90.9029V92.8605C246.997 94.6676 247.224 94.8182 249.489 94.5923L251.904 94.3664L252.131 76.0697L252.282 57.8483H249.262H246.242V64.6249ZM243.902 75.8439C245.865 77.6509 246.242 78.6298 246.242 81.4157C246.242 86.084 243.449 89.4723 239.75 89.4723C237.409 89.4723 236.957 89.1711 235.9 86.6864C233.71 81.3404 235.975 73.6603 239.75 73.6603C240.731 73.6603 242.619 74.6391 243.902 75.8439Z" fill="black"/>
<path d="M184.79 63.5708C184.563 64.2484 184.337 65.5284 184.337 66.5073C184.337 67.712 183.808 68.3896 182.374 68.6908C180.788 69.1426 180.486 69.5191 180.713 71.6273C180.864 73.4344 181.317 74.1121 182.525 74.2627C184.035 74.4885 184.186 75.0909 184.488 82.6204C184.714 87.0628 185.318 91.4299 185.771 92.3335C187.583 95.7218 196.642 96.1735 197.473 92.8605C198.152 90.0746 197.397 88.8699 195.132 89.3217C192.037 89.924 191.131 87.8911 191.131 80.6627V74.4132H194.076C196.416 74.4132 197.171 74.0368 197.548 72.9073C198.379 70.4226 196.642 68.3896 193.774 68.3896C191.207 68.3896 191.131 68.3143 191.131 65.3778C191.131 62.366 191.131 62.366 188.187 62.366C186.224 62.366 185.092 62.7425 184.79 63.5708Z" fill="black"/>
<path d="M84.9854 69.1426C82.1166 70.272 78.7948 74.9403 78.1909 78.5545C77.2094 85.5569 78.7193 90.0746 83.4755 93.5382C85.1364 94.8182 86.5708 95.1194 91.327 95.0441C98.348 94.9688 100.537 94.0653 100.537 90.9782C100.537 88.4181 100.613 88.4181 95.1772 89.4723C89.8171 90.5264 86.5708 89.4723 85.5139 86.3099C85.0609 85.0299 84.6834 83.9004 84.6834 83.7498C84.6834 83.5993 88.3072 83.3734 92.8369 83.2981L100.915 83.0722L101.141 79.5333C101.594 72.7568 97.2911 68.3896 90.3455 68.4649C88.3072 68.4649 85.8914 68.7661 84.9854 69.1426ZM93.8938 74.6391C94.1958 75.1662 94.4978 76.2956 94.4978 77.1992C94.4978 78.8557 94.1958 78.931 89.6661 78.931H84.7589L85.5894 76.5968C86.0423 75.3168 87.0993 73.9615 88.0052 73.6603C89.8926 72.8321 93.1389 73.4344 93.8938 74.6391Z" fill="black"/>
<path d="M121.902 68.9167C121.148 69.1426 120.921 72.5309 120.921 82.0181V94.8182L124.167 94.5923L127.338 94.3665L127.565 82.0181C127.716 72.6062 127.489 69.5191 126.81 68.992C125.753 68.3896 123.337 68.3144 121.902 68.9167Z" fill="black"/>
<path d="M138.511 69.8203C134.661 72.2297 133.529 74.6391 133.227 81.0392C132.849 87.5899 134.057 90.8276 137.756 93.5382C140.172 95.27 147.269 95.6465 150.062 94.1406C152.704 92.7853 153.082 86.5358 150.515 87.5899C146.212 89.397 145.155 89.6229 143.418 89.2464C141.003 88.644 139.795 85.8581 139.795 81.1145C139.795 78.1027 140.172 76.9733 141.682 75.5427C143.72 73.4344 146.363 73.1332 148.552 74.7897C150.892 76.5215 151.874 76.145 151.874 73.3591C151.874 69.9708 150.364 68.9167 145.23 68.6155C141.909 68.3896 140.399 68.6155 138.511 69.8203Z" fill="black"/>
<path d="M160.556 69.2179C157.159 70.1967 155.649 72.7568 157.008 75.0156C157.536 75.7686 158.216 75.6933 160.405 74.7897C161.915 74.1874 164.557 73.6603 166.218 73.6603C168.785 73.6603 169.389 73.9615 169.993 75.618C171.125 78.5545 171.05 78.7051 166.218 79.1568C158.291 79.9851 155.649 82.2439 155.649 87.9664C155.649 93.9147 162.368 97.1524 168.483 94.1406C170.899 92.9358 171.503 92.8606 171.503 93.7641C171.503 94.517 172.258 94.7429 174.371 94.5923L177.165 94.3665L177.391 84.9546C177.618 74.5638 176.636 71.1756 173.013 69.3685C170.899 68.3144 163.953 68.1638 160.556 69.2179ZM170.748 85.6322C170.748 88.2675 167.879 90.4511 164.859 90.0746C163.198 89.924 162.745 89.397 162.594 87.364C162.292 84.6534 163.878 83.5993 168.332 83.524C170.521 83.4487 170.748 83.6745 170.748 85.6322Z" fill="black"/>
<path d="M206.23 70.0461C202.531 72.4556 200.644 76.6721 200.644 82.3945C200.644 87.5146 202.229 90.9029 205.702 93.5382C207.438 94.8182 208.873 95.1194 213.629 95.0441C220.65 94.9688 222.839 94.0653 222.839 90.9782C222.839 88.4181 222.915 88.4934 217.705 89.4723C213.629 90.2252 209.401 89.4723 208.344 87.8158C208.042 87.2887 207.74 86.084 207.74 85.1052C207.74 83.524 207.967 83.4487 215.667 83.4487C224.726 83.4487 224.877 83.3734 223.972 77.7262C223.67 75.3168 222.688 73.4344 221.027 71.552C218.687 69.0673 218.083 68.8414 213.704 68.5402C209.552 68.3144 208.495 68.5402 206.23 70.0461ZM215.667 74.7897C218.913 77.9521 218.234 78.931 212.647 78.931C208.42 78.931 207.74 78.7804 207.74 77.5756C207.74 75.1662 210.005 73.1332 212.874 72.9826C213.402 72.9074 214.686 73.7356 215.667 74.7897Z" fill="black"/>
<path d="M263.002 69.4438C260.058 70.4226 258.775 72.305 259.454 74.4133C259.907 75.7686 259.982 75.7686 263.078 74.4133C268.74 71.7779 272.364 72.8321 272.817 77.0486L273.043 79.3074L268.136 79.7592C260.435 80.4369 258.322 82.1686 258.322 87.9664C258.322 92.4841 260.813 94.7429 265.947 94.7429C268.589 94.7429 270.476 94.2912 271.986 93.1617L274.175 91.6558V93.237C274.175 94.5923 274.553 94.8182 276.667 94.5923L279.083 94.3665L279.309 85.1805C279.536 74.1121 278.705 71.1756 274.628 69.5191C271.458 68.1638 266.475 68.1638 263.002 69.4438ZM273.194 84.6534C274.402 87.8158 269.646 91.5052 266.022 90.1499C264.135 89.4723 263.682 85.9334 265.267 84.3522C266.626 82.9969 272.59 83.2228 273.194 84.6534Z" fill="black"/>
<path d="M314.414 69.5191C311.47 70.7991 310.413 72.6815 310.413 76.5968C310.413 80.211 311.545 81.491 316.981 83.8251C321.36 85.7828 322.492 87.2887 320.907 89.1711C319.925 90.3758 315.547 90.3758 311.394 89.0958C309.885 88.644 309.658 88.7946 309.658 90.4511C309.658 93.3876 312.225 94.7429 317.661 94.7429C321.586 94.7429 322.719 94.4417 324.606 92.8606C327.173 90.7523 328.079 87.5146 326.946 84.3522C326.267 82.2439 324.908 81.3404 318.038 78.178C316 77.2745 315.32 75.3921 316.453 74.0368C317.51 72.7568 321.813 72.7568 324.984 74.0368C326.04 74.4885 326.267 74.1874 326.267 72.305C326.267 70.4226 325.814 69.8955 323.927 69.2179C320.756 68.0885 317.359 68.2391 314.414 69.5191Z" fill="black"/>
<path d="M282.48 69.8202C282.48 70.1967 283.688 73.4344 285.198 77.1239C286.632 80.738 288.52 85.7828 289.35 88.2675C290.256 90.8276 291.237 93.237 291.69 93.7641C292.143 94.3664 291.917 95.7971 290.86 98.2065C288.595 103.327 288.746 103.778 292.596 103.778H295.918L298.183 96.7759C299.466 93.0111 302.033 85.4063 303.845 80.0604C305.732 74.6391 307.091 70.0461 306.865 69.6697C306.714 69.3685 305.204 69.1426 303.619 69.1426C300.75 69.1426 300.674 69.2179 299.919 72.6815C298.636 78.5545 295.616 86.8369 295.088 85.9334C294.635 85.2557 290.558 73.8862 289.501 70.4226C289.199 69.4438 288.293 69.1426 285.802 69.1426C283.99 69.1426 282.48 69.4438 282.48 69.8202Z" fill="black"/>
</svg>
