<svg width="177" height="60" viewBox="0 0 177 60" fill="none" xmlns="http://www.w3.org/2000/svg">
<path d="M23.2108 2.27586C21.8122 3.51724 19.6994 5.40886 18.4793 6.4729C17.2593 7.53694 16.0392 8.63054 15.8012 8.86699C15.5334 9.10345 12.9742 11.3793 10.1175 13.8916C7.2608 16.4039 4.76118 18.5911 4.58264 18.7685C4.40409 18.9163 3.30307 19.9212 2.11277 20.9261L0 22.8177V41.4089V60H26.0377H52.0754V56.0099V52.0197H50.7363H49.3973V54.6798V57.3399H26.0377H2.67816V40.67C2.67816 24.7685 2.70792 23.9704 3.2138 23.5862C3.77919 23.202 7.97498 19.4778 8.89746 18.5911C9.16528 18.3251 11.2483 16.4631 13.5694 14.4532C15.8607 12.4434 19.4613 9.25123 21.6039 7.35961C23.7166 5.49754 25.6211 3.87192 25.7997 3.72414C26.0377 3.60591 27.1983 4.43349 28.9242 5.97044C30.4418 7.33005 34.0425 10.4926 36.8992 12.9754C39.7559 15.4877 42.4043 17.8227 42.7316 18.1478C43.7136 19.1232 47.7904 22.7291 48.6533 23.4089C49.3675 23.9704 49.3973 24.0887 49.3973 27.5172V31.0345H50.7363H52.0754V26.9261V22.8177L49.9329 20.9557C47.3738 18.6502 47.0762 18.3842 44.3087 15.931C33.8044 6.56157 26.246 -3.23177e-07 25.9782 -3.23177e-07C25.8592 0.0295563 24.6094 1.03448 23.2108 2.27586Z" fill="black"/>
<path d="M12.4523 27.5V33.4906H18.7948H25.1372V27.5V21.5095H18.7948H12.4523V27.5Z" fill="black"/>
<path d="M27.2523 27.5V33.4906H33.5947H39.9372V27.5V21.5095H33.5947H27.2523V27.5Z" fill="black"/>
<path d="M12.9456 36.0982C12.6637 36.3097 12.4523 39.1992 12.4523 42.4412V48.2908H18.7948H25.1372V41.9479V35.6049H19.2881C16.0464 35.6049 13.157 35.8163 12.9456 36.0982Z" fill="black"/>
<path d="M27.7456 36.0278C27.4637 36.3097 27.2523 39.1992 27.2523 42.4412V48.2908H33.5947H40.0076L39.7962 42.0888L39.5848 35.9573L33.9471 35.7459C30.7758 35.6754 28.0274 35.7459 27.7456 36.0278Z" fill="black"/>
<path d="M54.974 29.2748C54.6568 29.3805 54.5158 30.3676 54.5158 32.4123V35.4088L53.4583 34.8447C52.8943 34.5627 51.7663 34.3159 50.9555 34.3159C49.7217 34.3159 49.2635 34.5275 48.1707 35.6556C47.1132 36.7131 46.796 37.3124 46.5845 38.8283C46.1967 41.7896 46.655 44.081 47.9945 45.5264C48.9815 46.6192 49.334 46.7955 50.9202 46.7955C52.2245 46.8308 52.9648 46.6192 53.7403 46.0552C54.7625 45.3149 54.7978 45.2796 54.974 45.9494C55.115 46.4782 55.4675 46.6545 56.4193 46.6545H57.6883V38.0528C57.6883 30.5439 57.6178 29.4158 57.1243 29.2395C56.4898 28.9927 55.6085 28.9927 54.974 29.2748ZM53.423 37.7002C54.41 38.511 54.5158 38.7931 54.5158 40.6615C54.5158 42.4594 54.41 42.8119 53.5993 43.4465C51.449 45.1386 49.7922 43.9048 49.757 40.591C49.757 38.7226 49.8627 38.4053 50.744 37.6297C51.9778 36.5721 52.0835 36.5721 53.423 37.7002Z" fill="black"/>
<path d="M73.974 29.451C73.4805 29.9446 73.3747 45.4559 73.8682 46.2315C74.0445 46.5135 74.679 46.6545 75.525 46.584L76.8997 46.4782L77.0055 38.0528C77.076 31.531 76.9702 29.5568 76.653 29.31C75.9832 28.887 74.4675 28.9575 73.974 29.451Z" fill="black"/>
<path d="M80.7069 29.733C80.1076 29.9798 79.8961 30.3676 79.8961 31.0727C79.8961 32.4123 80.6011 32.9763 82.0816 32.8353C83.1391 32.7295 83.2449 32.6238 83.3506 31.3899C83.4564 30.2618 83.3506 30.0503 82.5399 29.733C82.0464 29.5215 81.5881 29.3805 81.5529 29.4158C81.5176 29.4158 81.1299 29.5568 80.7069 29.733Z" fill="black"/>
<path d="M138.764 32.5533C138.764 34.2807 138.694 35.7261 138.588 35.7261C138.517 35.7261 137.918 35.4088 137.284 35.021C135.098 33.7167 132.56 34.457 131.397 36.7484C129.916 39.6392 130.692 45.2091 132.736 46.302C134.005 46.9718 136.402 46.725 137.812 45.7732L139.117 44.8566V45.7732C139.117 46.6192 139.222 46.6898 140.28 46.584L141.408 46.4782L141.514 37.9118L141.584 29.3805H140.174H138.764V32.5533ZM137.671 37.806C138.588 38.6521 138.764 39.1104 138.764 40.4147C138.764 42.6004 137.46 44.1868 135.733 44.1868C134.64 44.1868 134.428 44.0458 133.935 42.8824C132.913 40.3795 133.97 36.7837 135.733 36.7837C136.191 36.7837 137.072 37.242 137.671 37.806Z" fill="black"/>
<path d="M110.07 32.0598C109.965 32.377 109.859 32.9763 109.859 33.4346C109.859 33.9987 109.612 34.3159 108.942 34.457C108.202 34.6685 108.061 34.8447 108.167 35.8318C108.237 36.6779 108.449 36.9952 109.013 37.0657C109.718 37.1714 109.788 37.4535 109.929 40.9788C110.035 43.0587 110.317 45.1034 110.529 45.5264C111.375 47.1128 115.605 47.3243 115.992 45.7732C116.31 44.4688 115.957 43.9048 114.9 44.1163C113.454 44.3983 113.031 43.4465 113.031 40.0622V37.1362H114.406C115.499 37.1362 115.851 36.9599 116.028 36.4311C116.415 35.2678 115.605 34.3159 114.265 34.3159C113.067 34.3159 113.031 34.2807 113.031 32.9058C113.031 31.4957 113.031 31.4957 111.657 31.4957C110.74 31.4957 110.211 31.672 110.07 32.0598Z" fill="black"/>
<path d="M63.4693 34.6685C62.1298 35.1973 60.5788 37.3829 60.2968 39.0751C59.8385 42.3536 60.5435 44.4688 62.7643 46.0904C63.5398 46.6897 64.2095 46.8308 66.4303 46.7955C69.7086 46.7602 70.7308 46.3372 70.7308 44.8918C70.7308 43.6932 70.7661 43.6932 68.2281 44.1868C65.7253 44.6803 64.2095 44.1868 63.716 42.7061C63.5045 42.1068 63.3283 41.5781 63.3283 41.5075C63.3283 41.437 65.0203 41.3313 67.1353 41.296L70.9071 41.1903L71.0128 39.5334C71.2243 36.3606 69.2151 34.3159 65.972 34.3512C65.0203 34.3512 63.8923 34.4922 63.4693 34.6685ZM67.6288 37.2419C67.7698 37.4887 67.9108 38.0175 67.9108 38.4405C67.9108 39.2161 67.7698 39.2514 65.6548 39.2514H63.3635L63.7513 38.1585C63.9628 37.5592 64.4563 36.9247 64.8793 36.7836C65.7605 36.3959 67.2763 36.6779 67.6288 37.2419Z" fill="black"/>
<path d="M80.7068 34.5627C80.3543 34.6685 80.2485 36.2549 80.2485 40.6967V46.6897L81.7643 46.584L83.2448 46.4782L83.3506 40.6967C83.4211 36.2901 83.3153 34.8447 82.9981 34.598C82.5045 34.3159 81.3765 34.2807 80.7068 34.5627Z" fill="black"/>
<path d="M88.4618 34.9858C86.664 36.1138 86.1353 37.2419 85.9943 40.2384C85.818 43.3055 86.382 44.8213 88.1093 46.0904C89.2373 46.9013 92.5508 47.0775 93.8551 46.3725C95.0889 45.7379 95.2651 42.8119 94.0666 43.3055C92.0573 44.1515 91.5638 44.2573 90.7531 44.081C89.6251 43.799 89.0611 42.4946 89.0611 40.2737C89.0611 38.8636 89.2373 38.3348 89.9423 37.665C90.8941 36.6779 92.1278 36.5369 93.1501 37.3124C94.2429 38.1233 94.7011 37.947 94.7011 36.6426C94.7011 35.0563 93.9961 34.5627 91.5991 34.4217C90.0481 34.3159 89.3431 34.4217 88.4618 34.9858Z" fill="black"/>
<path d="M98.7549 34.7037C97.1686 35.162 96.4636 36.3606 97.0981 37.4182C97.3449 37.7707 97.6621 37.7355 98.6844 37.3125C99.3894 37.0304 100.623 36.7837 101.399 36.7837C102.597 36.7837 102.879 36.9247 103.161 37.7002C103.69 39.0751 103.655 39.1456 101.399 39.3571C97.6974 39.7449 96.4636 40.8025 96.4636 43.4817C96.4636 46.2667 99.6009 47.7826 102.456 46.3725C103.584 45.8084 103.866 45.7732 103.866 46.1962C103.866 46.5487 104.219 46.6545 105.206 46.584L106.51 46.4782L106.616 42.0716C106.721 37.2067 106.263 35.6203 104.571 34.7742C103.584 34.2807 100.341 34.2102 98.7549 34.7037ZM103.514 42.3889C103.514 43.6227 102.174 44.6451 100.764 44.4688C99.9886 44.3983 99.7771 44.1515 99.7066 43.1997C99.5656 41.9306 100.306 41.4371 102.386 41.4018C103.408 41.3665 103.514 41.4723 103.514 42.3889Z" fill="black"/>
<path d="M120.081 35.0915C118.354 36.2196 117.473 38.1938 117.473 40.873C117.473 43.2702 118.213 44.8566 119.834 46.0904C120.645 46.6897 121.315 46.8308 123.536 46.7955C126.814 46.7602 127.836 46.3372 127.836 44.8918C127.836 43.6932 127.871 43.7285 125.439 44.1868C123.536 44.5393 121.562 44.1868 121.068 43.4112C120.927 43.1644 120.786 42.6004 120.786 42.1421C120.786 41.4018 120.892 41.3665 124.487 41.3665C128.717 41.3665 128.788 41.3313 128.365 38.6873C128.224 37.5592 127.766 36.6779 126.99 35.7966C125.897 34.6332 125.615 34.5275 123.571 34.3864C121.632 34.2807 121.139 34.3864 120.081 35.0915ZM124.487 37.3124C126.003 38.7931 125.686 39.2514 123.077 39.2514C121.103 39.2514 120.786 39.1809 120.786 38.6168C120.786 37.4887 121.844 36.5369 123.183 36.4664C123.43 36.4311 124.029 36.8189 124.487 37.3124Z" fill="black"/>
<path d="M146.59 34.8095C145.215 35.2678 144.616 36.1491 144.933 37.1362C145.145 37.7707 145.18 37.7707 146.625 37.1362C149.269 35.9023 150.961 36.3959 151.172 38.37L151.278 39.4276L148.987 39.6392C145.391 39.9564 144.404 40.7672 144.404 43.4817C144.404 45.5969 145.568 46.6545 147.965 46.6545C149.198 46.6545 150.08 46.443 150.785 45.9142L151.807 45.2091V45.9494C151.807 46.584 151.983 46.6897 152.97 46.584L154.098 46.4782L154.204 42.1774C154.31 36.9952 153.922 35.6203 152.018 34.8447C150.538 34.2102 148.211 34.2102 146.59 34.8095ZM151.349 41.9306C151.913 43.4112 149.692 45.1386 148 44.5041C147.119 44.1868 146.907 42.5299 147.647 41.7896C148.282 41.155 151.067 41.2608 151.349 41.9306Z" fill="black"/>
<path d="M170.595 34.8447C169.22 35.444 168.726 36.3254 168.726 38.1585C168.726 39.8507 169.255 40.45 171.793 41.5428C173.838 42.4594 174.366 43.1644 173.626 44.0458C173.168 44.6098 171.123 44.6098 169.185 44.0105C168.48 43.799 168.374 43.8695 168.374 44.6451C168.374 46.0199 169.572 46.6545 172.11 46.6545C173.943 46.6545 174.472 46.5135 175.353 45.7732C176.552 44.7861 176.975 43.2702 176.446 41.7896C176.129 40.8025 175.494 40.3795 172.287 38.8988C171.335 38.4758 171.018 37.5945 171.546 36.9599C172.04 36.3606 174.049 36.3606 175.53 36.9599C176.023 37.1714 176.129 37.0304 176.129 36.1491C176.129 35.2678 175.917 35.021 175.036 34.7037C173.556 34.1749 171.969 34.2454 170.595 34.8447Z" fill="black"/>
<path d="M155.684 34.9857C155.684 35.162 156.248 36.6779 156.953 38.4053C157.623 40.0974 158.504 42.4594 158.892 43.6227C159.315 44.8213 159.773 45.9494 159.985 46.1962C160.196 46.4782 160.09 47.148 159.597 48.2761C158.539 50.6733 158.61 50.8848 160.408 50.8848H161.959L163.016 47.6063C163.615 45.8437 164.814 42.2831 165.66 39.7802C166.541 37.2419 167.176 35.0915 167.07 34.9152C166.999 34.7742 166.294 34.6685 165.554 34.6685C164.215 34.6685 164.179 34.7037 163.827 36.3254C163.228 39.0751 161.818 42.9529 161.571 42.5299C161.359 42.2126 159.456 36.8894 158.962 35.2678C158.821 34.8095 158.398 34.6685 157.235 34.6685C156.389 34.6685 155.684 34.8095 155.684 34.9857Z" fill="black"/>
</svg>
