<svg width="327" height="48" viewBox="0 0 327 48" fill="none" xmlns="http://www.w3.org/2000/svg">
<g clip-path="url(#clip0_171_2)">
<path d="M43.2398 2.56214C47.0798 5.24437 48.2798 9.80817 48.2798 15.0125C48.2798 23.3795 45.1998 30.025 33.1198 30.025H12.0398V47.1593C12.0398 47.1593 12.0398 48 11.1998 48H0.83982C-0.04018 48 -0.000179985 47.1593 -0.000179985 47.1593V18.8157C-0.000179985 18.8157 -0.000179958 17.975 0.83982 17.975H33.1198C35.3198 17.975 36.2798 16.6939 36.2798 15.0125C36.2798 13.3311 35.3598 12.05 33.1198 12.05H0.83982C-0.000179958 12.05 -0.000179985 11.2093 -0.000179985 11.2093V0.840701C-0.000179985 0.840701 -0.000179958 0 0.83982 0H33.1198H43.1998L43.2398 2.56214Z" fill="#002F9F"/>
<path d="M70.28 0H39.4C27.32 0 24.24 6.64554 24.24 15.0125C24.24 16.0133 24.28 17.0142 24.4 17.975H33.12C35.32 17.975 36.28 16.6939 36.28 15.0125C36.28 13.3311 37.2 12.05 39.44 12.05H70.28C71.12 12.05 71.12 11.2093 71.12 11.2093V0.840701C71.12 0.840701 71.12 0 70.28 0Z" fill="#FFD200"/>
<path d="M57.4 17.975H48.16C47.44 24.8607 43.76 30.025 33.16 30.025H57.4C59.6 30.025 60.56 31.3061 60.56 32.9875C60.56 34.6689 59.64 35.95 57.4 35.95H25.08C24.24 35.95 24.24 36.7907 24.24 36.7907V47.1593C24.24 47.1593 24.24 48 25.08 48H57.36C69.44 48 72.52 41.3545 72.52 32.9875C72.56 24.6205 69.48 17.975 57.4 17.975Z" fill="#FFD200"/>
<path d="M90.96 14.5321H86.6V23.0592H82.16V0.360302H90.96C95.64 0.360302 98.44 3.56297 98.44 7.44621C98.44 11.2894 95.64 14.5321 90.96 14.5321ZM90.72 4.3236H86.6V10.5288H90.72C92.72 10.5288 94 9.28774 94 7.44621C94 5.60467 92.72 4.3236 90.72 4.3236Z" fill="#002F9F"/>
<path d="M103.64 23.0592V0.360302H118.56V4.3236H108.04V9.64804H117V13.6113H108.04V19.1359H118.56V23.0993H103.64V23.0592Z" fill="#002F9F"/>
<path d="M134.28 4.3236V23.0592H129.84V4.3236H123.92V0.360302H140.2V4.3236H134.28Z" fill="#002F9F"/>
<path d="M146.16 23.0592V0.360302H161.08V4.3236H150.56V9.64804H159.52V13.6113H150.56V19.1359H161.08V23.0993H146.16V23.0592Z" fill="#002F9F"/>
<path d="M180 23.0592L175.56 14.0117H172.36V23.0592H167.92V0.360302H176.8C181.4 0.360302 184.16 3.52294 184.16 7.28607C184.16 10.4887 182.2 12.4504 180.04 13.251L185.12 23.0192H180V23.0592ZM176.56 4.3236H172.4V10.3286H176.56C178.52 10.3286 179.76 9.08757 179.76 7.32611C179.76 5.56464 178.52 4.3236 176.56 4.3236Z" fill="#002F9F"/>
<path d="M207.48 23.2594C204.04 23.2594 201.44 22.5388 199.2 20.2569L202.08 17.3745C203.52 18.8157 205.44 19.2961 207.56 19.2961C210.16 19.2961 211.56 18.2952 211.56 16.4937C211.56 15.6931 211.32 15.0125 210.84 14.5721C210.4 14.1718 209.88 13.9316 208.84 13.7715L206.12 13.3711C204.16 13.0909 202.76 12.4904 201.72 11.4896C200.64 10.4087 200.08 8.92744 200.08 7.04587C200.08 3.0025 203.08 0.160133 207.96 0.160133C211.08 0.160133 213.32 0.920767 215.28 2.80233L212.48 5.56464C211.04 4.2035 209.32 4.00334 207.84 4.00334C205.48 4.00334 204.32 5.32444 204.32 6.88574C204.32 7.44621 204.52 8.0467 205 8.52711C205.44 8.92744 206.16 9.28774 207.12 9.40784L209.8 9.80817C211.88 10.0884 213.16 10.6489 214.12 11.5696C215.32 12.7306 215.88 14.372 215.88 16.3736C215.92 20.7773 212.24 23.2594 207.48 23.2594Z" fill="#002F9F"/>
<path d="M235.04 23.0592L233.72 19.0559H225.68L224.32 23.0592H219.72L227.96 0.360302H231.44L239.72 23.0592H235.04ZM229.76 7.08591L226.88 15.3328H232.52L229.76 7.08591Z" fill="#002F9F"/>
<path d="M259.08 20.8974C257.6 22.3786 255.44 23.0592 253.08 23.0592H244.88V0.360302H253.08C255.44 0.360302 257.56 1.04087 259.08 2.5221C261.64 5.08424 261.36 8.20684 261.36 11.6097C261.36 15.0525 261.6 18.3353 259.08 20.8974ZM255.96 5.72477C255.2 4.804 254.16 4.3236 252.64 4.3236H249.28V19.0959H252.64C254.16 19.0959 255.2 18.6155 255.96 17.6947C256.8 16.6939 256.92 15.0525 256.92 11.6097C256.92 8.16681 256.8 6.76564 255.96 5.72477Z" fill="#002F9F"/>
<path d="M268.4 23.0592V0.360302H272.84V19.0959H283.12V23.0592H268.4V23.0592Z" fill="#002F9F"/>
<path d="M288.04 23.0592V0.360302H302.96V4.3236H292.44V9.64804H301.4V13.6113H292.44V19.1359H302.96V23.0993H288.04V23.0592Z" fill="#002F9F"/>
<path d="M321.84 23.0592L317.44 14.0117H314.24V23.0592H309.8V0.360302H318.68C323.28 0.360302 326.04 3.52294 326.04 7.28607C326.04 10.4887 324.08 12.4504 321.92 13.251L327 23.0192H321.84V23.0592ZM318.44 4.3236H314.28V10.3286H318.44C320.4 10.3286 321.64 9.08757 321.64 7.32611C321.64 5.56464 320.36 4.3236 318.44 4.3236Z" fill="#002F9F"/>
<path d="M88.64 47.1593L86.24 42.2752H84.52V47.1593H82.12V34.9491H86.92C89.4 34.9491 90.88 36.6305 90.88 38.6722C90.88 40.3937 89.84 41.4345 88.64 41.8749L91.36 47.1593H88.64ZM86.8 37.0709H84.56V40.3136H86.8C87.84 40.3136 88.52 39.633 88.52 38.7123C88.52 37.7114 87.84 37.0709 86.8 37.0709Z" fill="#002F9F"/>
<path d="M96.4 47.1593V34.9491H104.44V37.0709H98.8V39.9533H103.6V42.0751H98.8V45.0375H104.44V47.1593H96.4Z" fill="#002F9F"/>
<path d="M118.56 47.1593V40.0334L116.24 44.6772H114.64L112.28 40.0334V47.1593H109.88V34.9491H112.24L115.44 41.5546L118.6 34.9491H120.96V47.1593H118.56Z" fill="#002F9F"/>
<path d="M134.24 45.9183C133.4 46.759 132.32 47.2394 130.96 47.2394C129.56 47.2394 128.52 46.759 127.64 45.9183C126.4 44.6772 126.44 43.156 126.44 41.0342C126.44 38.9124 126.4 37.3912 127.64 36.1501C128.48 35.3094 129.56 34.829 130.96 34.829C132.36 34.829 133.4 35.3094 134.24 36.1501C135.48 37.3912 135.44 38.9124 135.44 41.0342C135.44 43.156 135.48 44.6772 134.24 45.9183ZM132.48 37.5913C132.12 37.191 131.6 36.9508 130.96 36.9508C130.32 36.9508 129.76 37.191 129.4 37.5913C128.92 38.1118 128.8 38.6722 128.8 41.0342C128.8 43.3962 128.92 43.9566 129.4 44.4771C129.76 44.8774 130.28 45.1176 130.96 45.1176C131.6 45.1176 132.16 44.8774 132.48 44.4771C132.96 43.9566 133.08 43.3962 133.08 41.0342C133.08 38.6722 132.92 38.1118 132.48 37.5913Z" fill="#002F9F"/>
<path d="M145.36 47.1593H143.6L139.56 34.9491H142.04L144.48 42.9158L146.92 34.9491H149.4L145.36 47.1593Z" fill="#002F9F"/>
<path d="M160.64 47.1593L159.92 44.9975H155.6L154.88 47.1593H152.4L156.8 34.9491H158.68L163.12 47.1593H160.64ZM157.76 38.5521L156.2 42.9958H159.24L157.76 38.5521Z" fill="#002F9F"/>
<path d="M167.68 47.1593V34.9491H170.08V45.0375H175.6V47.1593H167.68Z" fill="#002F9F"/>
<path d="M183.84 47.2394C182 47.2394 180.6 46.839 179.4 45.638L180.96 44.0767C181.72 44.8374 182.76 45.1176 183.92 45.1176C185.32 45.1176 186.08 44.5972 186.08 43.5963C186.08 43.156 185.96 42.7957 185.72 42.5555C185.48 42.3153 185.2 42.1952 184.64 42.1151L183.16 41.9149C182.12 41.7548 181.36 41.4345 180.8 40.9141C180.2 40.3136 179.92 39.553 179.92 38.5121C179.92 36.3503 181.52 34.789 184.16 34.789C185.84 34.789 187.04 35.1893 188.12 36.2302L186.6 37.7114C185.84 36.9908 184.92 36.8707 184.08 36.8707C182.8 36.8707 182.2 37.5913 182.2 38.432C182.2 38.7523 182.32 39.0726 182.56 39.3128C182.8 39.553 183.2 39.7131 183.68 39.7932L185.12 39.9933C186.24 40.1535 186.92 40.4737 187.44 40.9541C188.08 41.5546 188.4 42.4754 188.4 43.5563C188.36 45.9183 186.36 47.2394 183.84 47.2394Z" fill="#002F9F"/>
<path d="M208.36 47.1593L207.48 46.0784C206.92 46.5188 206.08 47.2394 204.32 47.2394C201.64 47.2394 200.28 45.8382 200.28 43.5163C200.28 41.955 201.4 40.9541 202.48 40.2335C202 39.6731 201.28 38.7923 201.28 37.6314C201.28 35.95 202.48 34.789 204.52 34.789C206.44 34.789 207.64 35.99 207.64 37.6714C207.64 38.6322 207.16 39.2327 206.4 39.7932C206.4 39.7932 205.84 40.2335 205.52 40.4337L207.56 42.8757C207.96 42.3553 208.16 41.5947 208.16 40.7139H210.28C210.2 42.2752 209.84 43.5563 208.96 44.5171L211.16 47.1193H208.36V47.1593ZM203.68 41.6347C202.96 42.1551 202.44 42.6355 202.44 43.5163C202.44 44.5171 203.28 45.2377 204.28 45.2377C205 45.2377 205.52 44.9975 206.08 44.5171L203.68 41.6347ZM204.52 36.7506C203.84 36.7506 203.52 37.191 203.52 37.7515C203.52 38.1918 203.88 38.6322 204.32 39.1126C204.48 38.9925 204.84 38.7523 204.84 38.7523C205.24 38.4721 205.56 38.1518 205.56 37.7114C205.52 37.151 205.16 36.7506 204.52 36.7506Z" fill="#002F9F"/>
<path d="M223.12 47.1593V34.9491H225.52V45.0375H231.04V47.1593H223.12Z" fill="#002F9F"/>
<path d="M242.12 45.9183C241.28 46.759 240.2 47.2394 238.84 47.2394C237.44 47.2394 236.4 46.759 235.52 45.9183C234.28 44.6772 234.32 43.156 234.32 41.0342C234.32 38.9124 234.28 37.3912 235.52 36.1501C236.36 35.3094 237.44 34.829 238.84 34.829C240.24 34.829 241.28 35.3094 242.12 36.1501C243.36 37.3912 243.32 38.9124 243.32 41.0342C243.32 43.156 243.36 44.6772 242.12 45.9183ZM240.36 37.5913C240 37.191 239.48 36.9508 238.84 36.9508C238.2 36.9508 237.64 37.191 237.28 37.5913C236.8 38.1118 236.68 38.6722 236.68 41.0342C236.68 43.3962 236.8 43.9566 237.28 44.4771C237.64 44.8774 238.16 45.1176 238.84 45.1176C239.48 45.1176 240.04 44.8774 240.36 44.4771C240.84 43.9566 240.96 43.3962 240.96 41.0342C240.96 38.6722 240.8 38.1118 240.36 37.5913Z" fill="#002F9F"/>
<path d="M256.44 45.8782C255.48 46.8791 254.28 47.2794 253 47.2794C251.68 47.2794 250.56 46.799 249.72 45.9583C248.48 44.7173 248.52 43.196 248.52 41.0742C248.52 38.9525 248.48 37.4312 249.72 36.1902C250.56 35.3495 251.64 34.8691 253 34.8691C255.84 34.8691 257.28 36.7106 257.6 38.7923H255.2C254.92 37.6314 254.24 36.9908 253 36.9908C252.36 36.9908 251.8 37.231 251.48 37.6314C251 38.1518 250.88 38.7123 250.88 41.0742C250.88 43.4362 251 43.9967 251.48 44.5171C251.84 44.9174 252.36 45.1576 253 45.1576C253.72 45.1576 254.32 44.9174 254.68 44.4771C255.08 44.0367 255.24 43.4762 255.24 42.8357V42.3553H253V40.3536H257.6V42.1551C257.6 43.9166 257.28 44.9575 256.44 45.8782Z" fill="#002F9F"/>
<path d="M263.08 47.1593V34.9491H265.48V47.1593H263.08Z" fill="#002F9F"/>
<path d="M274.72 47.2394C272.88 47.2394 271.48 46.839 270.28 45.638L271.84 44.0767C272.6 44.8374 273.64 45.1176 274.8 45.1176C276.2 45.1176 276.96 44.5972 276.96 43.5963C276.96 43.156 276.84 42.7957 276.6 42.5555C276.36 42.3153 276.08 42.1952 275.52 42.1151L274.04 41.9149C273 41.7548 272.24 41.4345 271.68 40.9141C271.08 40.3136 270.8 39.553 270.8 38.5121C270.8 36.3503 272.4 34.789 275.04 34.789C276.72 34.789 277.92 35.1893 279 36.2302L277.48 37.7114C276.72 36.9908 275.8 36.8707 274.96 36.8707C273.68 36.8707 273.08 37.5913 273.08 38.432C273.08 38.7523 273.2 39.0726 273.44 39.3128C273.68 39.553 274.08 39.7131 274.56 39.7932L276 39.9933C277.12 40.1535 277.8 40.4737 278.32 40.9541C278.96 41.5546 279.28 42.4754 279.28 43.5563C279.24 45.9183 277.28 47.2394 274.72 47.2394Z" fill="#002F9F"/>
<path d="M289.08 37.0709V47.1593H286.68V37.0709H283.48V34.9491H292.24V37.0709H289.08Z" fill="#002F9F"/>
<path d="M297.12 47.1593V34.9491H299.52V47.1593H297.12Z" fill="#002F9F"/>
<path d="M309.48 47.2394C308.16 47.2394 307.04 46.759 306.2 45.9183C304.96 44.6772 305 43.156 305 41.0342C305 38.9124 304.96 37.3912 306.2 36.1501C307.04 35.3094 308.16 34.829 309.48 34.829C311.76 34.829 313.56 36.1501 313.96 38.6722H311.56C311.32 37.7114 310.72 36.9508 309.52 36.9508C308.88 36.9508 308.32 37.191 308 37.5913C307.52 38.1118 307.4 38.6722 307.4 41.0342C307.4 43.3962 307.52 43.9566 308 44.4771C308.36 44.8774 308.88 45.1176 309.52 45.1176C310.72 45.1176 311.32 44.357 311.56 43.3962H313.96C313.52 45.9583 311.72 47.2394 309.48 47.2394Z" fill="#002F9F"/>
<path d="M322.44 47.2394C320.6 47.2394 319.2 46.839 318 45.638L319.56 44.0767C320.32 44.8374 321.36 45.1176 322.52 45.1176C323.92 45.1176 324.68 44.5972 324.68 43.5963C324.68 43.156 324.56 42.7957 324.32 42.5555C324.08 42.3153 323.8 42.1952 323.24 42.1151L321.76 41.9149C320.72 41.7548 319.96 41.4345 319.4 40.9141C318.8 40.3136 318.52 39.553 318.52 38.5121C318.52 36.3503 320.12 34.789 322.76 34.789C324.44 34.789 325.64 35.1893 326.72 36.2302L325.2 37.7114C324.44 36.9908 323.52 36.8707 322.68 36.8707C321.4 36.8707 320.8 37.5913 320.8 38.432C320.8 38.7523 320.92 39.0726 321.16 39.3128C321.4 39.553 321.8 39.7131 322.28 39.7932L323.72 39.9933C324.84 40.1535 325.52 40.4737 326.04 40.9541C326.68 41.5546 327 42.4754 327 43.5563C326.96 45.9183 324.96 47.2394 322.44 47.2394Z" fill="#002F9F"/>
</g>
<defs>
<clipPath id="clip0_171_2">
<rect width="327" height="48" fill="white"/>
</clipPath>
</defs>
</svg>
