<?xml version="1.0" encoding="UTF-8"?>
<svg data-bbox="1.073 1.324 402.852 239.253" viewBox="0 0 413 241" height="321.333" width="550.667" xmlns="http://www.w3.org/2000/svg" data-type="shape">
    <g>
        <path d="M67.3 2.4C61.5 5 58.7 14 61.7 20c1.4 2.8 3.1 4 8.2 6.1 7.2 2.8 9.2 4.9 7.5 7.6-1.6 2.6-6.9 2.8-11 .4l-3.4-2-2.1 4.1c-2 4-2.1 4.2-.3 5.5 4.5 3.3 15.1 4.3 20.8 1.9 5.1-2.1 7.6-6 7.6-11.8 0-8.1-1.9-10.3-11.3-13.8-5.3-2-5.8-2.4-5.5-4.8.3-2.4.7-2.7 4.3-2.6 2.2 0 4.8.4 5.7.8 1.3.6 2.1-.1 3.7-3.2l2-3.9L85.2 3C81 1.1 71 .7 67.3 2.4z"/>
        <path d="M99 23v21h11V25.9l7.8.3 7.7.3.3 8.7.3 8.8H137V2h-11v16h-16V2H99v21z"/>
        <path d="M148 23v21h24v-9h-13v-8h12v-9h-12v-7h13V2h-24v21z"/>
        <path d="M183 22.9V44h10V30.3l6.9-.5C210.4 29 214 25.5 214 16c0-5.9-1.2-8.8-4.8-11.5-2.3-1.7-4.6-2.1-14.4-2.4L183 1.8v21.1zm18.8-10.7c.7.7 1.2 2.4 1.2 4 0 3.2-2.4 4.8-6.9 4.8-3 0-3.1-.1-3.1-5v-5h3.8c2.1 0 4.3.5 5 1.2z"/>
        <path d="M223 23v21h11V25.9l7.8.3 7.7.3.3 8.7.3 8.8h9.9V2h-10v16h-16V2h-11v21z"/>
        <path d="M272 23v21h24v-9h-13v-8h12v-9h-12v-7h13V2h-24v21z"/>
        <path d="M308 23v21h10v-7.5c0-4.1.3-7.5.8-7.4.4 0 2.8 3.4 5.4 7.5l4.7 7.4h6.7c5.1 0 6.4-.3 5.7-1.3-.5-.6-3.3-4.2-6.1-7.8-2.9-3.7-5.2-7.2-5.2-7.7 0-.6.9-1.3 2-1.7 3.5-1.1 6-5.4 6-10.2C338 5.2 333.3 2 318.1 2H308v21zm16.8-11.4c2.2 1.5 2.9 4.8 1.4 7.2-.5.7-2.5 1.5-4.5 1.9l-3.7.6v-5.7c0-5.2.2-5.6 2.3-5.6 1.2 0 3.3.7 4.5 1.6z"/>
        <path d="M350 23v21h9.8c13.6-.1 20.9-3.8 24.8-12.7 1.7-3.9 1.8-12.8.1-16.4-4.2-9.2-11.3-12.8-24.9-12.9H350v21zm20.1-9.7c4.1 2.7 5.7 7.8 4.3 13.4-1.1 4.5-6.1 8.3-11 8.3H360V11h3.4c1.8 0 4.8 1 6.7 2.3z"/>
        <path d="M391.4 42.4c-.4 1 .6 2.7 2.9 4.9 6.8 6.4 6.8 6.3 6.5 79.3l-.3 64.9-2.8 4.7c-1.8 3.1-4.4 5.7-7.5 7.5-4.6 2.7-5.2 2.8-21.4 3.1-16.1.4-16.8.5-16.8 2.4 0 2 .4 2 16.3 1.6 12.5-.4 17.1-.9 20.2-2.3 6.5-2.9 11.1-7.1 13.4-12.5 2.1-5 2.2-5.2 1.9-72.8l-.3-67.8-2.5-4.8c-3-5.9-8.6-10.7-9.6-8.2z"/>
        <path d="M63 54.7c-6.3 2.5-9.5 6.1-20.3 22.6C31 94.9 16 119.2 16 120.3c0 .4-1.9 3.7-4.2 7.4-2.2 3.8-5.5 9.7-7.2 13.3-3 6.5-3 6.6-3.4 27-.5 24.4.3 29.4 5.6 35.3 4.9 5.3 8.5 6.7 18.2 6.7 6.4 0 8-.3 8-1.5s-1.5-1.5-7.3-1.5c-10 0-15.2-2.6-18.7-9.5-2.4-4.8-2.5-5.5-2.5-25.5 0-23.3.3-24.7 7.3-37 2.7-4.7 6.5-11.6 8.6-15.3C24.5 112 43 82.7 51.7 70c8.9-12.9 7.6-12.5 39.9-12.5h27.1l3.6 2.7c2.4 1.9 4.2 4.6 5.6 8.3 2 5.4 2.1 7.3 2.1 62.8 0 31.5-.4 58.9-.9 61-1.9 8.2-9 14.7-16.1 14.7-2 0-3 .5-3 1.5 0 2.2 6.5 1.9 11.6-.6 5.2-2.5 10-9.3 10.9-15.3.3-2.2.5-31.1.3-64.1l-.3-60-2.8-4.7c-1.5-2.6-4.2-5.7-6-7-3.1-2.3-3.7-2.3-31.2-2.5-15.4-.1-28.7.1-29.5.4z"/>
        <path d="M138 127.4c0 39.2.4 66.5 1 68 1.6 4.3 7.8 10.3 13.3 12.7l5.2 2.4 55.8.3c55.5.3 55.7.3 55.7-1.8 0-2-.3-2-55.2-2h-55.3l-5-2.4c-5.6-2.6-9.8-6.7-11.4-10.9-.7-1.9-1.1-24.2-1.1-67.3 0-56.6-.2-64.4-1.5-64.4s-1.5 7.9-1.5 65.4z"/>
        <path d="M235 63.1c-10.1 4.1-15.6 15.1-13 26.1 2.6 10.8 14.1 18.1 25.8 16.3 12.3-1.8 19.6-10.1 19.5-22.3-.1-12.8-9.1-21.2-22.8-21.1-3.8 0-8.1.5-9.5 1zm16.1 11.2c2.1 1.4 3.9 3.7 4.7 6.1 1 3.3 1 4.3-.7 8.1-1.5 3.5-2.7 4.6-6.4 6-4.3 1.6-4.7 1.6-8.9-.3-7.7-3.4-9.7-11.3-4.6-17.7 3.9-5 10.5-5.9 15.9-2.2z"/>
        <path d="M363.3 64c-9.1 5.5-7.4 19.9 2.7 22.5 5.7 1.5 9 3.7 9 6.1 0 4.5-5.3 5.6-11.2 2.4l-3.8-2-2 4c-1.1 2.1-2 4.1-2 4.3 0 .2 1.9 1.3 4.2 2.3 2.7 1.2 6.4 1.9 10.3 1.8 10.6 0 15.5-4.5 15.5-14.3 0-4.1-.5-5.4-2.9-7.8-1.6-1.6-4.8-3.5-7.2-4.2-5.4-1.6-6.9-2.8-6.9-5.2 0-3.1 4-4.3 8.2-2.6l3.5 1.5 1.7-3.4c2.2-4.8 2.1-5.2-2.1-6.3-6.1-1.7-13.4-1.3-17 .9z"/>
        <path d="M167.5 65.2c-.6 2.9-6.5 38.3-6.5 39.2 0 .4 2.4.6 5.2.4l5.2-.3 1.7-10.7c1.6-11.2 2.4-13.4 3.5-10.2.4 1 2.4 6.2 4.4 11.4 5.3 13.5 6.4 13.4 12.5-1.4 2.6-6.4 5.1-11.4 5.5-11.1.4.2 1.3 4.6 1.9 9.7 1.8 13.4 1.4 12.8 7.2 12.8 2.9 0 4.9-.4 4.9-1.1 0-1.6-6-37.1-6.6-39.2-.4-1.3-1.7-1.7-5.8-1.7h-5.2l-3.8 10.5c-2.1 5.8-4.2 10.5-4.5 10.5-.3 0-2.4-4.7-4.5-10.5L178.7 63h-5.3c-4.7 0-5.4.3-5.9 2.2z"/>
        <path d="M275 72.2c2.1 5.1 6.1 14.5 8.7 20.8l4.9 11.5h9.8l8.7-20.8 8.7-20.7h-11.6l-1.7 4.2c-2.7 7-9 19.8-9.6 19.8-.4 0-2.8-5.4-5.4-12l-4.7-12h-11.7l3.9 9.2z"/>
        <path d="M323 84v21h24v-9h-13v-8h12v-9h-12v-7h13v-9h-24v21z"/>
        <path d="M72.2 84c-1.2.5-5.4 5.9-9.6 12.2C51.2 113.7 51 114.3 51 125.8c0 15.3-.9 14.7 24 14.7 20 0 20.2 0 22.1-2.4 1.8-2.1 1.9-4.2 1.9-26.3V87.9l-2.5-2.4c-2.2-2.3-3.1-2.5-12.2-2.4-5.4 0-10.8.4-12.1.9zM95 88.9c.6 1.2 1 10.4 1 23.1 0 12.7-.4 21.9-1 23.1-1 1.8-2.3 1.9-20 1.9-22.5 0-21.4.7-20.8-12.9l.3-8.6 6.9-11c3.8-6.1 8.1-12.5 9.4-14.3l2.4-3.2h10.4c9.2 0 10.4.2 11.4 1.9z"/>
        <path d="M153 126.5c0 1.3 13.9 1.5 119 1.5s119-.2 119-1.5-13.9-1.5-119-1.5-119 .2-119 1.5z"/>
        <path d="M248 141.5c0 1.3 8.5 1.5 70.5 1.5s70.5-.2 70.5-1.5-8.5-1.5-70.5-1.5-70.5.2-70.5 1.5z"/>
        <path d="M60.3 175.8C41.9 182.4 33 204 41.5 221.6c4.5 9.3 12.9 15.7 24.2 18.3 9.7 2.3 22.6-2 29.7-10 9.5-10.5 11.7-24.6 5.7-37.2-5.4-11.4-15-17.6-28.1-18.3-5.6-.4-8.8 0-12.7 1.4zm24.4 4.8c5.7 2.7 10.1 7.2 13.5 13.7 3.3 6.2 3.3 19.3 0 25.7-9.5 18.2-31.8 22.5-46.7 8.9-6.8-6.3-9.8-13-9.7-21.9.2-22.1 22.9-36.1 42.9-26.4z"/>
        <path d="M300.5 175.8c-6.5 2.2-11.7 5.5-15 9.4-11.5 13.7-10.5 34.2 2.2 45.9 4.9 4.5 10.3 7.1 18.4 8.9 13.6 3 30-6 36.2-19.8 3.3-7.4 3-18.9-.7-27-3.3-7.1-9.5-13.3-16.6-16.5-6.2-2.8-17.9-3.3-24.5-.9zm23 4.1c5.9 2.6 11.6 8 14.5 13.8 3.4 6.6 3.6 20.7.3 26.8-2.7 5.1-8.5 10.6-14.3 13.6-6.6 3.5-18.3 3.3-26.1-.3-11.2-5.3-17.5-16-16.7-28.6.4-7.5 2.3-12.1 7.3-18 7.9-9.1 23.5-12.4 35-7.3z"/>
    </g>
</svg>
