<svg width="256" height="85" viewBox="0 0 256 85" fill="none" xmlns="http://www.w3.org/2000/svg">
<path d="M38.9722 10.5124C33.3402 11.2933 29.5153 13.6661 27.7384 17.4205C27.0456 18.8922 26.9553 19.4329 26.9553 22.5265C26.9553 25.5601 27.0456 26.1307 27.648 27.2721C29.5755 30.9064 32.4969 32.4382 41.4118 34.5106C50.5073 36.6431 52.5252 37.5141 53.4889 39.8569C54.0913 41.2385 54.0009 44.0618 53.3384 45.5336C52.5553 47.2456 50.5374 48.8675 48.1882 49.5883C45.3572 50.5194 39.5445 50.4894 36.6532 49.5883C33.3101 48.5071 31.0212 45.864 31.0212 43.0106C31.0212 42.3799 30.9007 42.3498 28.8828 42.3498H26.7144L26.8649 44.2721C27.1661 47.9664 29.5153 51.0901 33.28 52.8322C36.1412 54.1837 37.9784 54.5141 42.6165 54.4841C47.3751 54.4841 49.5737 54.0336 52.4951 52.4717C56.7718 50.2191 59.0005 45.4735 58.1271 40.5177C57.7054 38.235 56.8019 36.553 55.1454 35.0512C52.8264 32.9488 51.1097 32.318 42.6165 30.3657C36.4122 28.924 34.5148 28.2633 32.8885 26.8516C30.2682 24.629 30.3586 20.2438 33.0391 17.5707C35.2075 15.4081 36.9544 14.8975 42.3153 14.8675C45.9294 14.8675 47.1341 14.9876 48.3991 15.4081C51.5313 16.5194 53.9106 19.1625 53.9106 21.5654V22.5265H56.1694C57.4042 22.5265 58.4282 22.4064 58.4282 22.2862C58.4282 21.2049 57.6452 18.2314 57.0428 17.0601C55.5671 14.1166 52.3746 11.894 48.4292 10.9629C45.9897 10.3922 41.3214 10.182 38.9722 10.5124Z" fill="#CCA680"/>
<path d="M86.7689 10.6025C86.1967 10.8728 83.5463 16.0389 75.3845 32.5583C69.5416 44.4223 64.7529 54.2138 64.7529 54.2739C64.7529 54.3339 65.8372 54.364 67.1925 54.3039L69.6019 54.2138L72.3727 48.417L75.1435 42.6502H87.6423H100.141L103.093 48.5071L106.014 54.364H108.273C109.508 54.364 110.532 54.2438 110.532 54.0936C110.532 53.9134 105.743 44.1519 99.8701 32.3481C92.8828 18.2314 89.0278 10.7527 88.6061 10.5424C87.823 10.1219 87.6725 10.1219 86.7689 10.6025ZM92.8527 27.8127C95.6235 33.3693 97.8522 37.9647 97.792 38.0247C97.7317 38.0848 93.1238 38.1148 87.5821 38.0848L77.4626 37.9947L82.4621 27.8428C85.2028 22.2862 87.5219 17.7208 87.6122 17.7208C87.7026 17.7208 90.0819 22.2562 92.8527 27.8127Z" fill="#CCA680"/>
<path d="M121.073 11.4134C120.471 12.0141 120.471 12.2845 120.471 32.4382V52.8922L121.224 53.6131L121.946 54.364H131.855C142.366 54.364 144.083 54.2138 146.583 52.9823C151.16 50.7597 153.931 46.4046 153.931 41.2986C153.961 37.2739 152.666 34.4806 149.504 31.5972L147.576 29.8251L148.36 29.1042C148.781 28.7138 149.534 27.5124 150.076 26.4611C150.95 24.659 151.04 24.2385 151.04 21.6254C151.04 19.1625 150.92 18.5318 150.227 17.0601C149.203 14.8675 147.125 12.7951 144.926 11.7739L143.209 10.9629L132.457 10.8728C121.976 10.7827 121.675 10.8127 121.073 11.4134ZM142.908 15.5883C148.088 17.9611 148.299 24.9594 143.27 27.4823C141.734 28.2332 141.734 28.2332 133.21 28.2332H124.687V21.6254V15.0177H133.21C140.8 15.0177 141.824 15.0777 142.908 15.5883ZM144.294 33.2191C146.191 34.1201 147.787 35.5919 148.721 37.364C149.384 38.6555 149.534 39.2862 149.534 41.2986C149.534 43.311 149.384 43.9417 148.721 45.2332C148.269 46.1042 147.336 47.2756 146.643 47.8463C144.444 49.7385 143.721 49.8587 133.662 49.8587H124.687V41.1184V32.3781L133.813 32.4982C142.306 32.5883 142.999 32.6184 144.294 33.2191Z" fill="#CCA680"/>
<path d="M163.84 31.8375V52.8922L164.593 53.6131L165.316 54.364H178.417H191.488L192.12 52.2915C192.482 51.1502 192.753 50.129 192.753 50.0389C192.753 49.9488 187.272 49.8587 180.555 49.8587H168.358V30.3357V10.8127H166.099H163.84V31.8375Z" fill="#CCA680"/>
<path d="M202.511 11.4435C201.969 12.0442 201.939 12.8852 201.848 32.0777C201.788 46.0141 201.879 52.3516 202.089 52.8922C202.27 53.3428 202.782 53.8233 203.174 54.0336C203.686 54.2739 207.842 54.364 216.696 54.364H229.496V52.1113V49.8587H217.901H206.306V41.1484V32.4382H215.191H224.045L224.557 30.6961C224.828 29.765 225.129 28.8039 225.19 28.5936C225.31 28.3233 223.322 28.2332 215.823 28.2332H206.306V21.6254V15.0177H217.901H229.496V12.9152V10.8127H216.305C203.264 10.8127 203.083 10.8127 202.511 11.4435Z" fill="#CCA680"/>
<path d="M43.0682 69.2315C43.0682 74.2774 43.0984 74.4876 43.6706 74.4876C44.2428 74.4876 44.2729 74.2774 44.2729 69.2315C44.2729 64.1855 44.2428 63.9753 43.6706 63.9753C43.0984 63.9753 43.0682 64.1855 43.0682 69.2315Z" fill="#CCA680"/>
<path d="M49.9049 64.1555C49.7844 64.2756 49.6941 66.6484 49.6941 69.4417C49.6941 74.2774 49.7242 74.4876 50.2964 74.4876C50.8687 74.4876 50.8988 74.2774 50.8988 70.523V66.5583L53.6997 70.523C55.4164 73.0159 56.6513 74.4576 56.9223 74.3975C57.3139 74.3375 57.3741 73.4664 57.4644 69.1413C57.5247 64.1555 57.5247 63.9753 56.9524 63.9753C56.3802 63.9753 56.32 64.2155 56.2597 67.9099L56.1694 71.8746L53.4588 68.03C50.8084 64.2756 50.3266 63.735 49.9049 64.1555Z" fill="#CCA680"/>
<path d="M61.952 64.1855C61.8316 64.2756 61.7412 64.5459 61.7412 64.7862C61.7412 65.0565 62.2231 65.1767 63.3977 65.1767H65.0542V69.8322C65.0542 74.2774 65.0843 74.4876 65.6565 74.4876C66.2287 74.4876 66.2589 74.2774 66.2589 69.8322V65.1767H67.9153C69.361 65.1767 69.5718 65.1166 69.5718 64.576C69.5718 64.0053 69.361 63.9753 65.8673 63.9753C63.8193 63.9753 62.0424 64.0654 61.952 64.1855Z" fill="#CCA680"/>
<path d="M73.8485 64.3357C73.4268 64.7562 73.3365 73.4664 73.728 74.1272C73.9087 74.3975 74.8122 74.4876 77.1313 74.4276C79.8419 74.3375 80.2635 74.2774 80.3539 73.7968C80.4442 73.3463 80.1732 73.2862 77.7336 73.2862H74.9929V71.3339V69.4117L77.0108 69.3216C78.6673 69.2615 79.0588 69.1413 79.1492 68.6908C79.2395 68.2403 78.9986 68.1802 77.1313 68.1802H74.9929V66.6784V65.1767H77.7336C80.1732 65.1767 80.4442 65.1166 80.3539 64.636C80.2635 64.1855 79.8419 64.1254 77.2518 64.0353C75.1435 63.9753 74.1195 64.0654 73.8485 64.3357Z" fill="#CCA680"/>
<path d="M85.0221 64.1855C84.721 64.2756 84.6306 65.6272 84.6306 69.4117C84.6306 74.2774 84.6607 74.4876 85.233 74.4876C85.7751 74.4876 85.8353 74.2774 85.8353 72.3852V70.2827H87.3111C88.7567 70.2827 88.7567 70.2827 90.3831 72.3852C91.5276 73.8269 92.2203 74.4576 92.7021 74.4876C93.0636 74.4876 93.3647 74.3975 93.3647 74.3074C93.3647 74.2173 92.672 73.2562 91.8287 72.2049L90.2927 70.2827L91.1059 69.9223C91.9793 69.5318 92.7624 68.2703 92.7624 67.2792C92.7624 66.258 91.9191 64.9364 90.9553 64.4258C90.112 64.0053 85.8956 63.8251 85.0221 64.1855ZM90.1723 65.477C91.5878 65.9876 91.8589 67.5194 90.7746 68.6307C90.4433 68.9611 89.6603 69.0813 88.064 69.0813H85.8353V67.129V65.1767H87.6123C88.6061 65.1767 89.7506 65.2968 90.1723 65.477Z" fill="#CCA680"/>
<path d="M97.7016 64.3657C97.6414 64.576 97.6113 66.9187 97.6414 69.5318C97.7317 73.8269 97.792 74.3375 98.2739 74.4276C98.7557 74.5177 98.7859 74.1272 98.7859 69.2615C98.7859 64.7262 98.7256 63.9753 98.3341 63.9753C98.063 63.9753 97.792 64.1555 97.7016 64.3657Z" fill="#CCA680"/>
<path d="M106.135 64.576C102.731 66.288 102.671 72.2049 106.074 73.917C107.671 74.7279 110.712 74.6378 111.947 73.7067C113.604 72.4753 113.995 71.6042 113.995 69.2314C113.995 66.8587 113.604 65.9876 111.947 64.7562C110.712 63.8551 107.731 63.765 106.135 64.576ZM111.767 66.258C112.429 66.9187 112.7 67.5495 112.821 68.6608C113.182 71.5141 111.586 73.2862 108.725 73.2862C106.225 73.2862 104.809 71.8145 104.809 69.2314C104.809 66.4081 106.315 65.0866 109.267 65.2668C110.562 65.3569 111.044 65.5371 111.767 66.258Z" fill="#CCA680"/>
<path d="M118.874 64.1855C118.754 64.2756 118.664 66.6484 118.664 69.4417C118.664 74.1272 118.694 74.5177 119.206 74.4276C119.627 74.3375 119.748 73.947 119.808 72.2951L119.898 70.2827H121.224C122.519 70.2827 122.609 70.3428 124.265 72.3852C125.5 73.917 126.163 74.4876 126.675 74.4876C127.066 74.4876 127.398 74.4276 127.398 74.3675C127.398 74.3074 126.735 73.4364 125.892 72.3852L124.416 70.523L125.44 69.5318C126.253 68.7809 126.494 68.3304 126.494 67.4894C126.494 64.9064 125.169 63.9753 121.464 63.9753C120.139 63.9753 118.965 64.0654 118.874 64.1855ZM123.994 65.5071C124.988 65.8675 125.289 66.288 125.289 67.2491C125.289 68.6307 124.506 69.0813 122.067 69.0813H119.868V67.129V65.1767H121.495C122.398 65.1767 123.512 65.3269 123.994 65.5071Z" fill="#CCA680"/>
<path d="M141.673 64.2456C140.83 64.606 139.746 66.0177 139.746 66.7385C139.746 67.0389 139.957 67.6996 140.198 68.1802C140.649 69.0212 141.161 69.2615 143.962 69.9823C145.619 70.4329 146.071 70.7633 146.071 71.6343C146.071 72.6555 145.137 73.2862 143.631 73.2862C142.306 73.2862 140.951 72.5053 140.951 71.7845C140.951 71.6042 140.679 71.4841 140.348 71.4841C139.655 71.4841 139.595 71.7544 140.107 72.8357C140.589 73.8869 141.824 74.4876 143.511 74.4876C146.281 74.4876 148.058 72.7756 147.305 70.8534C146.884 69.7421 146.281 69.3516 143.751 68.6608C141.944 68.1502 141.402 67.8799 141.222 67.3392C140.83 66.288 142.065 65.1767 143.571 65.1767C144.836 65.1767 146.071 65.8675 146.071 66.5583C146.071 66.7986 146.372 66.9788 146.854 66.9788C147.516 66.9788 147.576 66.8887 147.426 66.288C147.004 64.8763 145.92 64.1855 144.053 64.0654C143.089 64.0353 142.005 64.0954 141.673 64.2456Z" fill="#CCA680"/>
<path d="M150.889 64.576C150.889 65.1166 151.1 65.1767 152.546 65.1767H154.202V69.8322C154.202 74.2774 154.232 74.4876 154.805 74.4876C155.377 74.4876 155.407 74.2774 155.407 69.8322V65.1767H156.913C158.208 65.1767 158.419 65.0866 158.419 64.576C158.419 64.0053 158.208 63.9753 154.654 63.9753C151.1 63.9753 150.889 64.0053 150.889 64.576Z" fill="#CCA680"/>
<path d="M162.033 64.2156C162.033 64.3657 162.846 65.6272 163.84 67.0389C165.617 69.5919 165.617 69.6219 165.707 71.9647C165.798 74.0972 165.858 74.3375 166.4 74.3375C166.942 74.3375 167.002 74.0972 167.093 71.9947C167.183 69.682 167.183 69.6519 168.96 67.0989C169.954 65.7173 170.767 64.4258 170.767 64.2756C170.767 64.0954 170.526 63.9753 170.195 63.9753C169.833 63.9753 169.08 64.7862 168.087 66.2279C167.213 67.4594 166.46 68.4806 166.43 68.4806C166.37 68.4806 165.617 67.4594 164.774 66.2279C163.72 64.7262 162.997 63.9753 162.605 63.9753C162.304 63.9753 162.033 64.0954 162.033 64.2156Z" fill="#CCA680"/>
<path d="M175.345 69.1413L175.435 74.3375L178.568 74.4276C181.609 74.5177 182.182 74.3675 182.212 73.4965C182.212 73.3763 180.917 73.2862 179.351 73.2862H176.489V68.6307C176.489 64.1555 176.459 63.9753 175.887 63.9753C175.285 63.9753 175.285 64.1254 175.345 69.1413Z" fill="#CCA680"/>
<path d="M185.826 69.2315C185.826 74.2774 185.856 74.4876 186.428 74.4876C187 74.4876 187.031 74.2774 187.031 69.2315C187.031 64.1855 187 63.9753 186.428 63.9753C185.856 63.9753 185.826 64.1855 185.826 69.2315Z" fill="#CCA680"/>
<path d="M192.361 64.1555C192.241 64.2756 192.151 66.6484 192.151 69.4417C192.151 74.2774 192.181 74.4876 192.753 74.4876C193.295 74.4876 193.355 74.2474 193.416 70.583L193.506 66.7085L196.216 70.583C197.903 72.9859 199.108 74.4576 199.379 74.3975C199.77 74.3375 199.831 73.4664 199.921 69.1413C199.981 64.1555 199.981 63.9753 199.409 63.9753C198.837 63.9753 198.776 64.2155 198.716 67.9099L198.626 71.8145L195.915 68C193.265 64.2756 192.783 63.735 192.361 64.1555Z" fill="#CCA680"/>
<path d="M206.758 64.3958C204.8 65.2668 203.716 67.4594 203.957 70.0424C204.228 72.7156 205.914 74.2474 208.806 74.4276C210.342 74.5177 210.974 74.4276 211.968 73.917L213.233 73.2862V71.0336C213.233 68.9912 213.173 68.7809 212.631 68.7809C212.088 68.7809 212.028 68.9912 212.028 70.6731C212.028 72.4452 211.968 72.6254 211.275 72.9258C210.191 73.4364 208.233 73.3763 207.059 72.8057C204.86 71.7845 204.439 68.0901 206.306 66.2279C207.149 65.417 207.39 65.3269 209.107 65.3869C210.131 65.417 211.305 65.477 211.697 65.5371C212.841 65.6873 212.811 64.9064 211.607 64.4258C210.281 63.8852 207.962 63.8551 206.758 64.3958Z" fill="#CCA680"/>
</svg>
