<svg width="336" height="50" viewBox="0 0 336 50" fill="none" xmlns="http://www.w3.org/2000/svg">
<path d="M12.1918 0.17632C6.59011 1.05317 2.78581 3.71752 1.01848 7.93323C0.329416 9.58576 0.239602 10.1929 0.239602 13.6666C0.239602 17.073 0.329417 17.7137 0.928572 18.9953C2.84569 23.0762 5.75135 24.7962 14.6182 27.1232C23.6647 29.5177 25.6718 30.4958 26.6303 33.1264C27.2294 34.6778 27.1395 37.848 26.4806 39.5006C25.7017 41.423 23.6947 43.2442 21.3581 44.0535C18.5424 45.099 12.761 45.0654 9.88526 44.0535C6.56017 42.8395 4.2836 39.8716 4.2836 36.6676C4.2836 35.9594 4.16375 35.9256 2.15672 35.9256H0L0.149691 38.0841C0.449268 42.2323 2.78581 45.7399 6.53023 47.696C9.37602 49.2136 11.2033 49.5846 15.8164 49.5509C20.5494 49.5509 22.7362 49.045 25.6418 47.2912C29.8955 44.7618 32.1122 39.4331 31.2435 33.8684C30.8241 31.3052 29.9254 29.4166 28.2779 27.7302C25.9713 25.3695 24.2639 24.6612 15.8164 22.469C9.64556 20.8502 7.75838 20.1083 6.14084 18.5231C3.53466 16.0274 3.62457 11.1034 6.29063 8.10188C8.44735 5.67356 10.1848 5.10022 15.5169 5.06654C19.1115 5.06654 20.3097 5.20139 21.5679 5.67356C24.6832 6.92141 27.0497 9.88927 27.0497 12.5874V13.6666H29.2963C30.5245 13.6666 31.543 13.5318 31.543 13.3968C31.543 12.1826 30.7642 8.84377 30.165 7.52855C28.6973 4.22337 25.522 1.72768 21.5978 0.682174C19.1715 0.0413512 14.5283 -0.194677 12.1918 0.17632Z" fill="black"/>
<path d="M59.7404 0.413603C59.1801 0.71712 56.585 6.51808 48.5934 25.0675C42.8724 38.3895 38.1836 49.3843 38.1836 49.4518C38.1836 49.5191 39.2453 49.5529 40.5723 49.4855L42.9315 49.3843L45.6445 42.8751L48.3575 36.3996H60.5956H72.8336L75.724 42.9763L78.5841 49.5529H80.7959C82.0052 49.5529 83.0078 49.418 83.0078 49.2493C83.0078 49.047 78.3187 38.0859 72.5683 24.8315C65.7268 8.98002 61.9522 0.582262 61.5393 0.346118C60.7725 -0.126057 60.6251 -0.126057 59.7404 0.413603ZM65.6973 19.7388C68.4103 25.9782 70.5925 31.1383 70.5336 31.2057C70.4745 31.2732 65.9627 31.3069 60.5366 31.2732L50.6282 31.172L55.5234 19.7726C58.2069 13.5331 60.4777 8.40667 60.5661 8.40667C60.6546 8.40667 62.9843 13.4994 65.6973 19.7388Z" fill="black"/>
<path d="M93.5661 2.4696C92.9687 3.1281 92.9688 3.42452 92.9688 25.5174V47.9395L93.716 48.7298L94.4324 49.5529H104.265C114.695 49.5529 116.399 49.3883 118.88 48.0383C123.422 45.6018 126.171 40.8277 126.171 35.2304C126.201 30.8184 124.916 27.7563 121.778 24.5955L119.865 22.6529L120.643 21.8626C121.061 21.4347 121.808 20.1177 122.346 18.9652C123.213 16.9897 123.303 16.5287 123.303 13.6642C123.303 10.9643 123.184 10.2729 122.496 8.65963C121.48 6.25606 119.418 3.98425 117.236 2.86479L115.532 1.97575L104.863 1.87698C94.4622 1.77821 94.1635 1.8111 93.5661 2.4696ZM115.233 7.04621C120.373 9.64733 120.583 17.319 115.592 20.0847C114.068 20.9078 114.068 20.9078 105.61 20.9078H97.1523V13.6642V6.42071H105.61C113.141 6.42071 114.158 6.48648 115.233 7.04621ZM116.609 26.3735C118.491 27.3612 120.075 28.9746 121.001 30.9172C121.659 32.333 121.808 33.0243 121.808 35.2304C121.808 37.4364 121.659 38.1278 121.001 39.5436C120.553 40.4984 119.627 41.7825 118.939 42.4081C116.757 44.4824 116.04 44.6141 106.058 44.6141H97.1523V35.0328V25.4515L106.208 25.5832C114.636 25.682 115.323 25.715 116.609 26.3735Z" fill="black"/>
<path d="M136.133 24.8714V47.9403L136.911 48.7302L137.658 49.5529H151.199H164.708L165.361 47.2822C165.736 46.0317 166.016 44.9128 166.016 44.8141C166.016 44.7154 160.351 44.6166 153.408 44.6166H140.802V23.226V1.8353H138.468H136.133V24.8714Z" fill="black"/>
<path d="M175.011 2.52644C174.458 3.18461 174.428 4.10607 174.335 25.1346C174.274 40.4043 174.367 47.348 174.581 47.9403C174.765 48.4341 175.288 48.9605 175.688 49.1909C176.21 49.4542 180.449 49.5529 189.482 49.5529H202.539V47.0847V44.6166H190.711H178.883V35.0731V25.5296H187.946H196.978L197.501 23.6208C197.777 22.6007 198.084 21.5476 198.146 21.3172C198.269 21.0211 196.241 20.9223 188.591 20.9223H178.883V13.6824V6.44257H190.711H202.539V4.13893V1.8353H189.083C175.779 1.8353 175.595 1.8353 175.011 2.52644Z" fill="black"/>
<path d="M216.938 26.1449C215.538 26.8063 213.739 29.3972 213.739 30.7201C213.739 31.2714 214.089 32.484 214.489 33.366C215.238 34.9095 216.088 35.3505 220.738 36.6734C223.489 37.5004 224.239 38.1068 224.239 39.7053C224.239 41.5795 222.688 42.737 220.188 42.737C217.989 42.737 215.739 41.3039 215.739 39.981C215.739 39.6501 215.287 39.4297 214.738 39.4297C213.587 39.4297 213.488 39.9257 214.338 41.9102C215.138 43.8395 217.188 44.942 219.989 44.942C224.588 44.942 227.538 41.7999 226.288 38.2721C225.589 36.2326 224.588 35.5159 220.387 34.2481C217.388 33.311 216.488 32.8149 216.189 31.8226C215.538 29.8933 217.588 27.8537 220.089 27.8537C222.189 27.8537 224.239 29.1215 224.239 30.3894C224.239 30.8304 224.739 31.1611 225.539 31.1611C226.638 31.1611 226.738 30.9957 226.489 29.8933C225.788 27.3024 223.988 26.0346 220.889 25.8142C219.288 25.7589 217.489 25.8692 216.938 26.1449Z" fill="black"/>
<path d="M232.238 26.7512C232.238 27.7434 232.588 27.8537 234.988 27.8537H237.738V36.3979C237.738 44.5562 237.787 44.942 238.739 44.942C239.688 44.942 239.738 44.5562 239.738 36.3979V27.8537H242.238C244.388 27.8537 244.739 27.6883 244.739 26.7512C244.739 25.7038 244.388 25.6488 238.488 25.6488C232.588 25.6488 232.238 25.7038 232.238 26.7512Z" fill="black"/>
<path d="M250.738 26.0898C250.738 26.3653 252.088 28.6805 253.738 31.2714C256.688 35.9569 256.688 36.012 256.838 40.3117C256.989 44.2254 257.088 44.6665 257.988 44.6665C258.888 44.6665 258.988 44.2254 259.139 40.3667C259.288 36.1223 259.288 36.067 262.238 31.3815C263.889 28.8459 265.238 26.4756 265.238 26.1999C265.238 25.8692 264.838 25.6488 264.289 25.6488C263.688 25.6488 262.438 27.137 260.789 29.783C259.338 32.0431 258.088 33.9173 258.038 33.9173C257.938 33.9173 256.688 32.0431 255.289 29.783C253.539 27.0269 252.339 25.6488 251.688 25.6488C251.188 25.6488 250.738 25.8692 250.738 26.0898Z" fill="black"/>
<path d="M272.838 35.1299L272.988 44.6665L278.189 44.8318C283.238 44.9972 284.189 44.7215 284.239 43.123C284.239 42.9024 282.089 42.737 279.489 42.737H274.738V34.1928C274.738 25.9795 274.688 25.6488 273.738 25.6488C272.739 25.6488 272.739 25.9243 272.838 35.1299Z" fill="black"/>
<path d="M290.238 35.2955C290.238 44.5562 290.288 44.942 291.238 44.942C292.187 44.942 292.239 44.5562 292.239 35.2955C292.239 26.0346 292.187 25.6488 291.238 25.6488C290.288 25.6488 290.238 26.0346 290.238 35.2955Z" fill="black"/>
<path d="M301.088 25.9795C300.888 26.1999 300.739 30.5547 300.739 35.6812C300.739 44.5562 300.789 44.942 301.738 44.942C302.638 44.942 302.738 44.5011 302.839 37.7759L302.988 30.665L307.487 37.7759C310.288 42.1859 312.289 44.8869 312.739 44.7766C313.388 44.6665 313.489 43.0677 313.638 35.1299C313.738 25.9795 313.738 25.6488 312.788 25.6488C311.839 25.6488 311.737 26.0896 311.638 32.8699L311.488 40.036L306.988 33.0353C302.588 26.1999 301.788 25.2078 301.088 25.9795Z" fill="black"/>
<path d="M324.989 26.4205C321.738 28.0191 319.939 32.0431 320.339 36.7837C320.789 41.6898 323.588 44.5011 328.389 44.8318C330.939 44.9972 331.988 44.8318 333.638 43.8947L335.738 42.737V38.6028C335.738 34.8544 335.639 34.4685 334.739 34.4685C333.838 34.4685 333.738 34.8544 333.738 37.9412C333.738 41.1935 333.638 41.5243 332.488 42.0756C330.688 43.0127 327.438 42.9024 325.489 41.8552C321.838 39.981 321.139 33.2006 324.238 29.783C325.638 28.2947 326.038 28.1294 328.889 28.2395C330.589 28.2947 332.538 28.4048 333.188 28.5151C335.088 28.7908 335.038 27.3576 333.039 26.4756C330.838 25.4834 326.988 25.4282 324.989 26.4205Z" fill="black"/>
</svg>
