<svg width="314" height="48" viewBox="0 0 314 48" fill="none" xmlns="http://www.w3.org/2000/svg">
<path d="M12.696 47.704C10.6053 47.704 8.89867 47.0853 7.576 45.848C6.296 44.568 5.656 42.4987 5.656 39.64V20.696H0.92V19.096L2.648 18.968C4.39733 18.84 5.72 18.136 6.616 16.856C7.55467 15.5333 8.17333 13.6987 8.472 11.352H10.136V19.096H18.328V20.696H10.136V39.896C10.136 43.6507 11.4587 45.528 14.104 45.528C15.2133 45.528 16.1093 45.1653 16.792 44.44C17.4747 43.672 18.0933 42.7333 18.648 41.624L20.056 42.328C19.8 42.968 19.48 43.5653 19.096 44.12C18.7547 44.632 18.4133 45.08 18.072 45.464C17.3467 46.2747 16.5147 46.8507 15.576 47.192C14.68 47.5333 13.72 47.704 12.696 47.704ZM22.4795 47.192V45.72L23.5035 45.592C24.7408 45.4213 25.6795 45.2293 26.3195 45.016C27.0022 44.76 27.4715 44.2267 27.7275 43.416C27.9835 42.5627 28.1115 41.176 28.1115 39.256V25.944C28.1115 24.28 27.8768 23.064 27.4075 22.296C26.9808 21.528 26.3408 21.0587 25.4875 20.888C24.6342 20.6747 23.6315 20.568 22.4795 20.568V19.096C24.2288 19.096 25.9142 19.032 27.5355 18.904C29.1568 18.776 30.8422 18.584 32.5915 18.328L31.8875 25.688H32.1435C33.0822 22.8293 34.2342 20.824 35.5995 19.672C36.9648 18.52 38.4368 17.944 40.0155 17.944C41.8075 17.944 43.0022 18.392 43.5995 19.288C44.1968 20.1413 44.4955 20.9733 44.4955 21.784C44.4955 22.7227 44.2182 23.4907 43.6635 24.088C43.1088 24.6853 42.3622 24.984 41.4235 24.984C40.5275 24.984 39.8448 24.7707 39.3755 24.344C38.9062 23.9173 38.6715 23.4267 38.6715 22.872C38.6715 22.4453 38.7142 22.04 38.7995 21.656C38.9275 21.272 38.9915 20.9733 38.9915 20.76C38.9915 20.3333 38.6928 20.12 38.0955 20.12C37.4982 20.12 36.8582 20.3973 36.1755 20.952C35.5355 21.5067 34.9808 22.2747 34.5115 23.256C34.1275 24.0667 33.7648 24.9627 33.4235 25.944C33.0822 26.9253 32.8048 27.992 32.5915 29.144V39.256C32.5915 41.176 32.7195 42.5627 32.9755 43.416C33.2315 44.2267 33.6795 44.76 34.3195 45.016C35.0022 45.2293 35.9622 45.4213 37.1995 45.592L38.2235 45.72V47.192L30.3515 47L22.4795 47.192ZM62.021 47.704C59.205 47.704 56.7517 47.1067 54.661 45.912C52.5703 44.6747 50.9277 42.9893 49.733 40.856C48.581 38.68 48.005 36.2053 48.005 33.432C48.005 30.4453 48.645 27.8 49.925 25.496C51.205 23.1493 52.9117 21.3147 55.045 19.992C57.221 18.6267 59.6103 17.944 62.213 17.944C65.4983 17.944 68.0583 18.9893 69.893 21.08C71.7703 23.1707 72.709 25.9227 72.709 29.336C72.709 29.848 72.6877 30.2747 72.645 30.616C72.6023 30.9573 72.5597 31.192 72.517 31.32H53.189C53.1463 31.9173 53.125 32.5147 53.125 33.112C53.125 35.3733 53.4877 37.4853 54.213 39.448C54.9383 41.368 56.0263 42.904 57.477 44.056C58.9703 45.208 60.7837 45.784 62.917 45.784C64.9223 45.784 66.693 45.2293 68.229 44.12C69.8077 42.968 71.0237 41.2827 71.877 39.064L73.413 39.64C71.621 45.016 67.8237 47.704 62.021 47.704ZM62.213 19.544C59.5677 19.544 57.4983 20.4827 56.005 22.36C54.5543 24.2373 53.6583 26.7333 53.317 29.848H61.445C63.365 29.848 64.8157 29.6347 65.797 29.208C66.821 28.7387 67.5037 28.184 67.845 27.544C68.229 26.8613 68.421 26.2 68.421 25.56C68.421 23.6827 67.781 22.2107 66.501 21.144C65.221 20.0773 63.7917 19.544 62.213 19.544ZM92.521 47.704C89.705 47.704 87.2517 47.1067 85.161 45.912C83.0703 44.6747 81.4277 42.9893 80.233 40.856C79.081 38.68 78.505 36.2053 78.505 33.432C78.505 30.4453 79.145 27.8 80.425 25.496C81.705 23.1493 83.4117 21.3147 85.545 19.992C87.721 18.6267 90.1103 17.944 92.713 17.944C95.9983 17.944 98.5583 18.9893 100.393 21.08C102.27 23.1707 103.209 25.9227 103.209 29.336C103.209 29.848 103.188 30.2747 103.145 30.616C103.102 30.9573 103.06 31.192 103.017 31.32H83.689C83.6463 31.9173 83.625 32.5147 83.625 33.112C83.625 35.3733 83.9877 37.4853 84.713 39.448C85.4383 41.368 86.5263 42.904 87.977 44.056C89.4703 45.208 91.2837 45.784 93.417 45.784C95.4223 45.784 97.193 45.2293 98.729 44.12C100.308 42.968 101.524 41.2827 102.377 39.064L103.913 39.64C102.121 45.016 98.3237 47.704 92.521 47.704ZM92.713 19.544C90.0677 19.544 87.9983 20.4827 86.505 22.36C85.0543 24.2373 84.1583 26.7333 83.817 29.848H91.945C93.865 29.848 95.3157 29.6347 96.297 29.208C97.321 28.7387 98.0037 28.184 98.345 27.544C98.729 26.8613 98.921 26.2 98.921 25.56C98.921 23.6827 98.281 22.2107 97.001 21.144C95.721 20.0773 94.2917 19.544 92.713 19.544ZM198.259 47.704C196.168 47.704 194.461 47.0853 193.139 45.848C191.859 44.568 191.219 42.4987 191.219 39.64V20.696H186.483V19.096L188.211 18.968C189.96 18.84 191.283 18.136 192.179 16.856C193.117 15.5333 193.736 13.6987 194.035 11.352H195.699V19.096H203.891V20.696H195.699V39.896C195.699 43.6507 197.021 45.528 199.667 45.528C200.776 45.528 201.672 45.1653 202.355 44.44C203.037 43.672 203.656 42.7333 204.211 41.624L205.619 42.328C205.363 42.968 205.043 43.5653 204.659 44.12C204.317 44.632 203.976 45.08 203.635 45.464C202.909 46.2747 202.077 46.8507 201.139 47.192C200.243 47.5333 199.283 47.704 198.259 47.704ZM208.042 47.192V45.72L209.066 45.592C210.303 45.4213 211.242 45.2293 211.882 45.016C212.565 44.76 213.034 44.2267 213.29 43.416C213.546 42.5627 213.674 41.176 213.674 39.256V25.944C213.674 24.28 213.439 23.064 212.97 22.296C212.543 21.528 211.903 21.0587 211.05 20.888C210.197 20.6747 209.194 20.568 208.042 20.568V19.096C209.791 19.096 211.477 19.032 213.098 18.904C214.719 18.776 216.405 18.584 218.154 18.328L217.45 25.688H217.706C218.645 22.8293 219.797 20.824 221.162 19.672C222.527 18.52 223.999 17.944 225.578 17.944C227.37 17.944 228.565 18.392 229.162 19.288C229.759 20.1413 230.058 20.9733 230.058 21.784C230.058 22.7227 229.781 23.4907 229.226 24.088C228.671 24.6853 227.925 24.984 226.986 24.984C226.09 24.984 225.407 24.7707 224.938 24.344C224.469 23.9173 224.234 23.4267 224.234 22.872C224.234 22.4453 224.277 22.04 224.362 21.656C224.49 21.272 224.554 20.9733 224.554 20.76C224.554 20.3333 224.255 20.12 223.658 20.12C223.061 20.12 222.421 20.3973 221.738 20.952C221.098 21.5067 220.543 22.2747 220.074 23.256C219.69 24.0667 219.327 24.9627 218.986 25.944C218.645 26.9253 218.367 27.992 218.154 29.144V39.256C218.154 41.176 218.282 42.5627 218.538 43.416C218.794 44.2267 219.242 44.76 219.882 45.016C220.565 45.2293 221.525 45.4213 222.762 45.592L223.786 45.72V47.192L215.914 47L208.042 47.192ZM233.105 47.192V45.72L234.129 45.592C235.366 45.4213 236.305 45.2293 236.945 45.016C237.627 44.76 238.097 44.2267 238.353 43.416C238.609 42.5627 238.737 41.176 238.737 39.256V25.752C238.737 23.5333 238.267 22.1253 237.329 21.528C236.433 20.888 235.174 20.568 233.553 20.568H233.105V19.096C234.854 19.096 236.539 19.0533 238.161 18.968C239.782 18.84 241.467 18.6267 243.217 18.328V39.256C243.217 41.176 243.345 42.5627 243.601 43.416C243.857 44.2267 244.305 44.76 244.945 45.016C245.627 45.2293 246.587 45.4213 247.825 45.592L248.849 45.72V47.192L240.977 47L233.105 47.192ZM240.209 10.84C239.099 10.84 238.225 10.456 237.585 9.688C236.945 8.92 236.625 8.00267 236.625 6.936C236.625 5.82667 236.945 4.90933 237.585 4.184C238.225 3.416 239.099 3.032 240.209 3.032C241.446 3.032 242.342 3.416 242.897 4.184C243.494 4.90933 243.793 5.82667 243.793 6.936C243.793 8.00267 243.494 8.92 242.897 9.688C242.342 10.456 241.446 10.84 240.209 10.84ZM255.772 47.704V8.024C255.772 5.80533 255.303 4.39733 254.364 3.8C253.468 3.16 252.209 2.84 250.588 2.84H250.14V1.368C251.889 1.368 253.575 1.32533 255.196 1.24C256.817 1.112 258.503 0.898664 260.252 0.599998V21.976C261.404 20.7387 262.727 19.7573 264.22 19.032C265.713 18.3067 267.356 17.944 269.148 17.944C271.623 17.944 273.82 18.6053 275.74 19.928C277.703 21.2507 279.26 23.0427 280.412 25.304C281.564 27.5653 282.14 30.104 282.14 32.92C282.14 35.6507 281.564 38.1467 280.412 40.408C279.26 42.6267 277.681 44.3973 275.676 45.72C273.713 47.0427 271.452 47.704 268.892 47.704C267.1 47.704 265.436 47.32 263.9 46.552C262.364 45.784 261.127 44.9093 260.188 43.928L256.796 47.704H255.772ZM268.508 19.864C266.673 19.864 265.073 20.2907 263.708 21.144C262.385 21.9547 261.233 22.9573 260.252 24.152V41.432C260.977 42.5413 262.065 43.544 263.516 44.44C264.967 45.336 266.567 45.784 268.316 45.784C270.279 45.784 271.9 45.2293 273.18 44.12C274.46 42.968 275.42 41.432 276.06 39.512C276.7 37.5493 277.02 35.352 277.02 32.92C277.02 30.4453 276.7 28.2267 276.06 26.264C275.463 24.3013 274.524 22.744 273.244 21.592C272.007 20.44 270.428 19.864 268.508 19.864ZM301.896 47.704C299.08 47.704 296.627 47.1067 294.536 45.912C292.445 44.6747 290.803 42.9893 289.608 40.856C288.456 38.68 287.88 36.2053 287.88 33.432C287.88 30.4453 288.52 27.8 289.8 25.496C291.08 23.1493 292.787 21.3147 294.92 19.992C297.096 18.6267 299.485 17.944 302.088 17.944C305.373 17.944 307.933 18.9893 309.768 21.08C311.645 23.1707 312.584 25.9227 312.584 29.336C312.584 29.848 312.563 30.2747 312.52 30.616C312.477 30.9573 312.435 31.192 312.392 31.32H293.064C293.021 31.9173 293 32.5147 293 33.112C293 35.3733 293.363 37.4853 294.088 39.448C294.813 41.368 295.901 42.904 297.352 44.056C298.845 45.208 300.659 45.784 302.792 45.784C304.797 45.784 306.568 45.2293 308.104 44.12C309.683 42.968 310.899 41.2827 311.752 39.064L313.288 39.64C311.496 45.016 307.699 47.704 301.896 47.704ZM302.088 19.544C299.443 19.544 297.373 20.4827 295.88 22.36C294.429 24.2373 293.533 26.7333 293.192 29.848H301.32C303.24 29.848 304.691 29.6347 305.672 29.208C306.696 28.7387 307.379 28.184 307.72 27.544C308.104 26.8613 308.296 26.2 308.296 25.56C308.296 23.6827 307.656 22.2107 306.376 21.144C305.096 20.0773 303.667 19.544 302.088 19.544Z" fill="#747882"/>
<path d="M139.32 47.704C137.187 47.704 135.096 47.2347 133.048 46.296C131 45.3573 129.293 44.0347 127.928 42.328C126.605 40.6213 125.944 38.5947 125.944 36.248C125.944 34.2 126.392 32.3653 127.288 30.744C128.184 29.1227 129.357 27.6507 130.808 26.328C132.301 25.0053 133.901 23.7893 135.608 22.68C134.328 20.8027 133.304 19.2027 132.536 17.88C131.768 16.5147 131.213 15.2773 130.872 14.168C130.573 13.016 130.424 11.8427 130.424 10.648C130.424 8.42933 130.936 6.59467 131.96 5.144C132.984 3.65067 134.307 2.52 135.928 1.752C137.592 0.983999 139.384 0.599998 141.304 0.599998C143.864 0.599998 145.933 1.00533 147.512 1.816C149.091 2.62666 150.243 3.672 150.968 4.952C151.736 6.232 152.12 7.53333 152.12 8.856C152.12 10.6053 151.565 12.248 150.456 13.784C149.347 15.32 147.96 16.7493 146.296 18.072C144.632 19.352 142.989 20.4827 141.368 21.464C142.136 22.5307 142.989 23.6827 143.928 24.92C144.867 26.1573 145.891 27.544 147 29.08C149.176 32.0667 151.139 34.584 152.888 36.632C153.101 36.3333 153.293 36.056 153.464 35.8C153.635 35.5013 153.784 35.2453 153.912 35.032C155.619 32.2587 156.472 30.1893 156.472 28.824C156.472 27.928 156.109 27.2667 155.384 26.84C154.701 26.4133 153.677 26.136 152.312 26.008L150.392 25.816V24.216L158.776 24.408L165.752 24.216V25.752L163.448 26.264C161.869 26.6053 160.525 27.6293 159.416 29.336C158.349 31.0427 157.176 33.0907 155.896 35.48C155.683 35.9067 155.427 36.3547 155.128 36.824C154.872 37.2933 154.573 37.784 154.232 38.296C156.408 40.728 158.157 42.4347 159.48 43.416C160.803 44.3547 161.869 44.824 162.68 44.824C163.917 44.824 165.112 44.312 166.264 43.288L167.288 44.504C166.477 45.528 165.475 46.3173 164.28 46.872C163.085 47.4267 161.933 47.704 160.824 47.704C159.715 47.704 158.669 47.5973 157.688 47.384C156.707 47.1707 155.661 46.7227 154.552 46.04C153.485 45.3147 152.227 44.184 150.776 42.648C149.411 44.056 147.768 45.2507 145.848 46.232C143.971 47.2133 141.795 47.704 139.32 47.704ZM135.736 8.856C135.736 10.8187 136.099 12.6107 136.824 14.232C137.549 15.8533 138.723 17.7947 140.344 20.056C142.051 18.5627 143.395 17.24 144.376 16.088C145.357 14.936 146.04 13.784 146.424 12.632C146.808 11.48 147 10.2 147 8.792C147 7 146.509 5.528 145.528 4.376C144.547 3.224 143.245 2.648 141.624 2.648C139.789 2.648 138.339 3.24533 137.272 4.44C136.248 5.592 135.736 7.064 135.736 8.856ZM131.704 36.312C131.704 37.6773 131.939 39.0853 132.408 40.536C132.877 41.9867 133.709 43.2027 134.904 44.184C136.099 45.1653 137.763 45.656 139.896 45.656C141.816 45.656 143.565 45.208 145.144 44.312C146.723 43.3733 148.131 42.2853 149.368 41.048C148.173 39.64 146.851 37.9547 145.4 35.992C143.651 33.6453 142.093 31.5547 140.728 29.72C139.363 27.8427 138.147 26.1787 137.08 24.728C135.501 26.264 134.2 27.9707 133.176 29.848C132.195 31.6827 131.704 33.8373 131.704 36.312Z" fill="#8BD8CD"/>
</svg>
